<svg width="32" height="32" viewBox="0 0 32 32" fill="none" xmlns="http://www.w3.org/2000/svg">
<g clip-path="url(#clip0_99_2)">
<path d="M15.9557 0.234311C14.7053 0.248311 13.4945 0.500329 12.5649 0.944829C10.9552 1.71658 2.01025 6.14058 2.01025 6.14058C3.33045 6.80033 5.0556 7.66833 7.26025 8.76558L21.2057 1.76558C20.5988 1.46458 19.9555 1.13558 19.5649 0.944829C18.5009 0.425079 17.2059 0.220311 15.9557 0.234311ZM24.9791 3.62579L10.979 10.6258C11.8145 11.0406 13.6987 12.0398 13.9322 12.1553C15.0209 12.7013 16.9998 12.7013 18.0884 12.1553L29.9557 6.14058C29.9557 6.14058 27.1393 4.70381 24.9791 3.62579ZM0.260254 8.98433V21.1258C0.260254 23.2416 1.69438 25.5393 3.5961 26.4843L14.2603 31.7343V15.8198C13.7756 15.7533 12.8864 15.4873 12.3461 15.2178L1.24463 9.69485C0.596779 9.37285 0.260254 8.98433 0.260254 8.98433ZM31.7603 8.98433C31.7603 8.98433 31.4238 9.37285 30.7759 9.69485L19.6745 15.2178C19.1342 15.4873 18.2451 15.7533 17.7603 15.8198V31.7343L28.4245 26.4843C30.3262 25.5393 31.7601 23.2416 31.7603 21.1258V8.98433Z" fill="#E1BD46"/>
</g>
<defs>
<clipPath id="clip0_99_2">
<rect width="32" height="32" fill="white"/>
</clipPath>
</defs>
</svg>
