<svg width="25" height="15" viewBox="0 0 25 15" fill="none" xmlns="http://www.w3.org/2000/svg">
<path d="M24.1111 0.666656H0.888889C0.397969 0.666656 0 1.06463 0 1.55555C0 2.04647 0.39797 2.44443 0.88889 2.44443H24.1111C24.602 2.44443 25 2.04647 25 1.55555C25 1.06463 24.602 0.666656 24.1111 0.666656Z" fill="#C1A341"/>
<path d="M24.1111 13.1111H0.888889C0.397969 13.1111 0 13.5091 0 14C0 14.4909 0.39797 14.8889 0.88889 14.8889H24.1111C24.602 14.8889 25 14.4909 25 14C25 13.5091 24.602 13.1111 24.1111 13.1111Z" fill="#C1A341"/>
<path d="M17.1111 6.88889H0.888889C0.397969 6.88889 0 7.28685 0 7.77777C0 8.26869 0.39797 8.66666 0.888889 8.66666H17.1111C17.602 8.66666 18 8.26869 18 7.77777C18 7.28685 17.602 6.88889 17.1111 6.88889Z" fill="#C1A341"/>
</svg>
