<svg width="40" height="40" viewBox="0 0 40 40" fill="none" xmlns="http://www.w3.org/2000/svg">
<path fill-rule="evenodd" clip-rule="evenodd" d="M2.14779 4.60466C2.36611 3.94972 3.07401 3.59577 3.72893 3.81409L4.23624 3.98319C5.28019 4.33114 6.16241 4.62517 6.85614 4.94789C7.59353 5.29094 8.23334 5.71609 8.71851 6.38921C9.20368 7.06234 9.40468 7.80377 9.49693 8.61181C9.54404 9.02446 9.56558 9.48712 9.57541 9.99994H27.418C30.843 9.99994 32.5555 9.99994 33.2965 11.1237C34.0375 12.2475 33.3628 13.8215 32.0136 16.9695L31.2995 18.6362C30.6695 20.106 30.3546 20.8408 29.7285 21.2537C29.1023 21.6667 28.3028 21.6667 26.7036 21.6667H9.83898C10.014 22.5663 10.29 23.093 10.682 23.485C11.1433 23.9462 11.7909 24.247 13.0138 24.4113C14.2728 24.5807 15.9413 24.5833 18.3336 24.5833H30.0003C30.6906 24.5833 31.2503 25.1428 31.2503 25.8333C31.2503 26.5237 30.6906 27.0833 30.0003 27.0833H18.2421C15.9629 27.0833 14.1257 27.0833 12.6807 26.889C11.1805 26.6873 9.91743 26.2558 8.91423 25.2527C7.91104 24.2495 7.47954 22.9863 7.27786 21.4862C7.08359 20.0412 7.08361 18.204 7.08364 15.9247V11.4717C7.08364 10.2833 7.08176 9.49706 7.01306 8.89537C6.94803 8.32564 6.83444 8.05082 6.69041 7.85099C6.54638 7.65116 6.32158 7.45649 5.80164 7.21462C5.25256 6.95919 4.50723 6.70874 3.37988 6.33297L2.93836 6.18579C2.28344 5.96749 1.92949 5.25959 2.14779 4.60466ZM13.3336 13.7499C12.6433 13.7499 12.0836 14.3096 12.0836 14.9999C12.0836 15.6903 12.6433 16.2499 13.3336 16.2499H18.3336C19.024 16.2499 19.5836 15.6903 19.5836 14.9999C19.5836 14.3096 19.024 13.7499 18.3336 13.7499H13.3336Z" fill="black"/>
<path d="M12.5 30C13.8807 30 15 31.1193 15 32.5C15 33.8807 13.8807 35 12.5 35C11.1193 35 10 33.8807 10 32.5C10 31.1193 11.1193 30 12.5 30Z" fill="black"/>
<path d="M27.5 30.0002C28.8807 30.0002 30 31.1193 30 32.5002C30 33.8808 28.8807 35.0002 27.5 35.0002C26.1193 35.0002 25 33.8808 25 32.5002C25 31.1193 26.1193 30.0002 27.5 30.0002Z" fill="black"/>
</svg>
