<svg width="30" height="30" viewBox="0 0 30 30" fill="none" xmlns="http://www.w3.org/2000/svg">
<path fill-rule="evenodd" clip-rule="evenodd" d="M4.875 4.28571C4.875 4.99579 4.37132 5.57143 3.75 5.57143C3.12868 5.57143 2.625 4.99579 2.625 4.28571C2.625 3.57564 3.12868 3 3.75 3C4.37132 3 4.875 3.57564 4.875 4.28571ZM7.27125 5.76302C6.74462 7.40207 5.36679 8.57143 3.75 8.57143C1.67893 8.57143 0 6.65265 0 4.28571C0 1.91878 1.67893 0 3.75 0C5.36679 0 6.74462 1.16936 7.27125 2.80841C7.34554 2.79349 7.42198 2.78571 7.5 2.78571H28.125C28.8499 2.78571 29.4375 3.45729 29.4375 4.28571C29.4375 5.11414 28.8499 5.78571 28.125 5.78571H7.5C7.42198 5.78571 7.34554 5.77794 7.27125 5.76302ZM0.5625 15C0.5625 14.1716 1.15013 13.5 1.875 13.5H11.25C11.328 13.5 11.4045 13.5078 11.4788 13.5227C12.0054 11.8836 13.3832 10.7143 15 10.7143C16.6168 10.7143 17.9946 11.8836 18.5212 13.5227C18.5955 13.5078 18.672 13.5 18.75 13.5H28.125C28.8499 13.5 29.4375 14.1716 29.4375 15C29.4375 15.8284 28.8499 16.5 28.125 16.5H18.75C18.672 16.5 18.5955 16.4922 18.5212 16.4773C17.9946 18.1164 16.6168 19.2857 15 19.2857C13.3832 19.2857 12.0054 18.1164 11.4788 16.4773C11.4045 16.4922 11.328 16.5 11.25 16.5H1.875C1.15013 16.5 0.5625 15.8284 0.5625 15ZM0.5625 25.7143C0.5625 24.8859 1.15013 24.2143 1.875 24.2143H22.5C22.578 24.2143 22.6545 24.222 22.7288 24.237C23.2554 22.5979 24.6332 21.4286 26.25 21.4286C28.3211 21.4286 30 23.3473 30 25.7143C30 28.0813 28.3211 30 26.25 30C24.6332 30 23.2554 28.8306 22.7288 27.1916C22.6545 27.2066 22.578 27.2143 22.5 27.2143H1.875C1.15013 27.2143 0.5625 26.5427 0.5625 25.7143ZM27.375 25.7143C27.375 26.4244 26.8714 27 26.25 27C25.6286 27 25.125 26.4244 25.125 25.7143C25.125 25.0041 25.6286 24.4286 26.25 24.4286C26.8714 24.4286 27.375 25.0041 27.375 25.7143ZM15 16.2857C15.6213 16.2857 16.125 15.7101 16.125 15C16.125 14.2899 15.6213 13.7143 15 13.7143C14.3787 13.7143 13.875 14.2899 13.875 15C13.875 15.7101 14.3787 16.2857 15 16.2857Z" fill="#C1A341"/>
</svg>
