<svg width="32" height="28" viewBox="0 0 32 28" fill="none" xmlns="http://www.w3.org/2000/svg">
<g clip-path="url(#clip0_99_8)">
<path d="M15.5314 0C6.99222 0 0 6.2141 0 13.9782C0 16.4198 0.686502 18.7929 1.98958 20.8695C2.69005 21.9862 2.75525 23.5751 1.69912 25.723C1.2192 26.6984 1.87931 27.8539 2.96029 27.9564C5.0679 28.1568 6.99377 27.6567 9.41511 26.6456C11.3457 27.3973 13.3819 27.9564 15.5314 27.9564C24.0706 27.9564 31.0628 21.7408 31.0628 13.9782C31.0628 6.2141 24.0706 0 15.5314 0ZM9.31882 9.36696H21.744C22.6013 9.36696 23.2971 10.0628 23.2971 10.9201C23.2971 11.7774 22.6013 12.4732 21.744 12.4732H9.31882C8.46148 12.4732 7.76568 11.7774 7.76568 10.9201C7.76568 10.0628 8.46148 9.36696 9.31882 9.36696ZM9.31882 15.5795H17.0846C17.9419 15.5795 18.6377 16.2753 18.6377 17.1326C18.6377 17.99 17.9419 18.6858 17.0846 18.6858H9.31882C8.46148 18.6858 7.76568 17.99 7.76568 17.1326C7.76568 16.2753 8.46148 15.5795 9.31882 15.5795Z" fill="#E1BD46"/>
</g>
<defs>
<clipPath id="clip0_99_8">
<rect width="32" height="28" fill="white"/>
</clipPath>
</defs>
</svg>
