<svg xmlns="http://www.w3.org/2000/svg" xmlns:xlink="http://www.w3.org/1999/xlink" viewBox="0,0,256,256" width="96px" height="96px" fill-rule="nonzero"><g fill="#7d8999" fill-rule="nonzero" stroke="none" stroke-width="1" stroke-linecap="butt" stroke-linejoin="miter" stroke-miterlimit="10" stroke-dasharray="" stroke-dashoffset="0" font-family="none" font-weight="none" font-size="none" text-anchor="none" style="mix-blend-mode: normal"><g transform="scale(4,4)"><path d="M32,10c12.131,0 22,9.869 22,22c0,12.131 -9.869,22 -22,22c-12.131,0 -22,-9.869 -22,-22c0,-12.131 9.869,-22 22,-22zM41.242,35.833c-2.187,-1.94 -1.894,-1.626 0.74,-4.98c1.604,-2.044 2.236,-3.927 2.085,-4.477c-0.105,-0.384 -0.717,-0.376 -1.37,-0.376c-0.653,0 -3.63,0.023 -3.927,0.023c-0.297,0 -0.29,-0.003 -0.507,0.121c-0.212,0.121 -0.348,0.367 -0.348,0.367c0,0 -0.66,2.233 -1.49,3.578c-1.747,2.837 -2.729,2.621 -3.016,2.443c-0.664,-0.411 -0.543,-1.649 -0.543,-2.53c0,-2.75 0.318,-3.533 -0.969,-3.83c-0.426,-0.098 -0.74,-0.163 -1.831,-0.174c-1.402,-0.013 -2.215,0.055 -2.812,0.321c-0.447,0.21 -0.798,0.578 -0.588,0.605c0.26,0.034 0.854,0.249 1.165,0.654c0.403,0.524 0.369,1.699 0.369,1.699c0,0 0.252,2.737 -0.521,3.138c-0.529,0.276 -1.254,0.212 -2.813,-2.362c-0.798,-1.319 -1.424,-3.387 -1.424,-3.387c0,0 -0.116,-0.278 -0.324,-0.424c-0.251,-0.176 -0.602,-0.242 -0.602,-0.242l-3.729,0.001c0,0 -0.561,-0.03 -0.767,0.203c-0.182,0.208 -0.015,0.55 -0.015,0.55c0,0 2.829,6.785 6.055,10.154c2.28,2.383 4.565,3.092 6.672,3.092h1.202c0.647,0 0.933,-0.149 0.933,-0.483c0,-0.93 -0.008,-2.019 0.797,-2.26c0.96,-0.287 2.326,1.368 3.63,2.222c0.8,0.53 1.736,0.52 1.736,0.52h3.845c0,0 1.825,-0.167 0.959,-1.539c-0.07,-0.112 -0.504,-0.774 -2.592,-2.627z"></path></g></g></svg>