<svg width="50" height="50" viewBox="0 0 50 50" fill="none" xmlns="http://www.w3.org/2000/svg">
<path d="M50 27.5362C50 42.7536 39.3 50 25.3136 50C11.3272 50 0 41.5435 0 27.5362C0 13.529 11.3272 0 25.3136 0C39.3 0 50 13.529 50 27.5362Z" fill="#121213"/>
<ellipse cx="41.5585" cy="4.34783" rx="3.8961" ry="4.34783" fill="#121213"/>
<path d="M44.3958 19.5157C44.2155 25.5155 34.9916 27.8644 25.3141 27.5023C15.6366 27.1402 6.57435 24.1071 6.7546 18.1074C6.93486 12.1077 16.3547 3.24062 26.0321 3.60271C35.7096 3.96479 44.5761 13.516 44.3958 19.5157Z" fill="white"/>
<ellipse cx="10.3896" cy="4.34783" rx="3.8961" ry="4.34783" fill="#121213"/>
<path d="M39.4631 21.3819C38.3251 22.9283 34.6422 22.3233 32.7022 20.5453C30.7622 18.7674 30.1058 15.3703 31.2438 13.8239C32.3818 12.2775 35.7936 12.2888 37.7337 14.0667C39.6737 15.8446 41.6983 18.3445 39.4631 21.3819Z" fill="#121213"/>
<path d="M9.50787 17.9677C8.86352 16.1004 11.1513 12.8233 13.494 11.8167C15.8367 10.81 18.8086 11.848 19.453 13.7153C20.0974 15.5827 18.4061 18.8894 16.0634 19.8961C13.7207 20.9028 10.7735 21.6355 9.50787 17.9677Z" fill="#121213"/>
<ellipse cx="1.29888" cy="1.44912" rx="1.29888" ry="1.44912" transform="matrix(0.999301 0.0373892 -0.030031 0.999549 14.6729 14.0534)" fill="white"/>
<ellipse cx="1.29888" cy="1.44912" rx="1.29888" ry="1.44912" transform="matrix(0.999301 0.0373892 -0.030031 0.999549 32.8446 14.7332)" fill="white"/>
<path d="M27.2791 18.1466C27.2734 19.3472 26.1097 19.5205 24.6752 19.512C23.2407 19.5035 22.0787 19.3165 22.0844 18.1159C22.0901 16.9153 23.2576 15.9489 24.6921 15.9574C26.1266 15.9658 27.2848 16.946 27.2791 18.1466Z" fill="#121213"/>
<path d="M25.9025 22.4637C24.6979 22.7564 22.6897 22.1571 22.0781 21.7391C21.4664 21.3211 24.5504 21.8786 25.3248 21.0144C25.9741 20.2898 26.423 20.0883 27.0346 20.5063C27.6462 20.9243 27.5679 22.0591 25.9025 22.4637Z" fill="#121213"/>
</svg>
