<svg width="32" height="28" viewBox="0 0 32 28" fill="none" xmlns="http://www.w3.org/2000/svg">
    <path d="M20.9976 0C17.132 0 13.9984 3.13409 13.9984 6.99922C13.9984 10.8643 17.132 13.9985 20.9976 13.9985C24.8632 13.9985 27.9968 10.8643 27.9968 6.99922C27.9968 3.13409 24.8632 0 20.9976 0ZM9.33229 1.55538C5.8963 1.55538 3.11076 4.34107 3.11076 7.77691C3.11076 11.2128 5.8963 13.9985 9.33229 13.9985C10.6223 13.9985 11.7999 13.6438 12.8362 12.919C10.1784 8.96838 10.5551 5.18564 12.0037 2.13865C11.1764 1.74669 10.2677 1.55538 9.33229 1.55538ZM4.76336 16.0889C1.91063 17.2663 0 20.1515 0 23.3307V26.4415C0 27.3001 0.696345 27.9969 1.55538 27.9969L8.01457 28C7.65061 26.8179 7.75762 24.9017 7.78157 23.351C7.83212 20.0582 9.19386 17.7096 9.7272 17.0906C8.747 17.0828 7.57067 16.8448 6.70758 16.4777C6.49916 16.3891 6.37815 16.3191 5.97858 16.1371C5.58678 15.9582 5.16122 15.924 4.76336 16.0889ZM15.651 16.0889C12.7983 17.2663 10.8877 20.1515 10.8877 23.3307V26.4415C10.8877 27.3001 11.584 27.9969 12.4431 27.9969H29.5522C30.4113 27.9969 31.1076 27.3001 31.1076 26.4415V23.3307C31.1076 20.2262 29.1864 17.411 26.3442 16.1853C25.9442 16.0127 25.4781 16.008 25.0805 16.1853C23.7043 16.8028 22.3636 17.1092 20.9976 17.1092C19.6364 17.1092 18.2909 16.7857 16.8662 16.1371C16.4744 15.9582 16.0489 15.924 15.651 16.0889Z" fill="#FBD506"/>
</svg>
