<svg width="42" height="42" viewBox="0 0 42 42" fill="none" xmlns="http://www.w3.org/2000/svg">
<path d="M21 0C32.5984 0 42 9.40161 42 21C42 32.5984 32.5984 42 21 42C9.40161 42 0 32.5984 0 21C0 9.40161 9.40161 0 21 0ZM28.2441 29.5598C28.6303 28.3747 30.44 16.5635 30.6637 14.2362C30.7312 13.5313 30.5084 13.0629 30.072 12.8538C29.5443 12.6 28.7627 12.7269 27.856 13.0538C26.6125 13.5021 10.7146 20.2522 9.79604 20.643C8.925 21.0128 8.10143 21.4163 8.10143 22.0007C8.10143 22.4116 8.34522 22.6426 9.01722 22.8827C9.71661 23.132 11.4779 23.6661 12.5178 23.9528C13.5194 24.2294 14.6598 23.9893 15.299 23.5921C15.9764 23.1712 23.7948 17.9395 24.3563 17.4811C24.917 17.0228 25.3643 17.6099 24.906 18.0691C24.4477 18.5275 19.0808 23.7364 18.3732 24.4577C17.514 25.3333 18.1239 26.2409 18.7 26.6043C19.3583 27.0188 24.0925 30.1943 24.8056 30.7038C25.5187 31.2133 26.2418 31.4443 26.9037 31.4443C27.5657 31.4443 27.9145 30.5723 28.2441 29.5598Z" fill="white"/>
</svg>
