<svg width="42" height="42" viewBox="0 0 42 42" fill="none" xmlns="http://www.w3.org/2000/svg">
<path d="M21 0C32.5796 0 42 9.42041 42 21C42 32.5796 32.5796 42 21 42C9.42041 42 0 32.5796 0 21C0 9.42041 9.42041 0 21 0ZM29.8219 24.6588C27.7343 22.807 28.014 23.1067 30.5283 19.9051C32.0594 17.954 32.6626 16.1566 32.5185 15.6316C32.4183 15.2651 31.8341 15.2727 31.2108 15.2727C30.5875 15.2727 27.7458 15.2947 27.4623 15.2947C27.1788 15.2947 27.1855 15.2918 26.9783 15.4102C26.776 15.5257 26.6461 15.7605 26.6461 15.7605C26.6461 15.7605 26.0161 17.892 25.2239 19.1759C23.5563 21.8839 22.6189 21.6777 22.345 21.5078C21.7111 21.1155 21.8266 19.9338 21.8266 19.0928C21.8266 16.4678 22.1302 15.7204 20.9017 15.4369C20.495 15.3434 20.1953 15.2813 19.1539 15.2708C17.8156 15.2584 17.0396 15.3233 16.4697 15.5772C16.043 15.7777 15.708 16.129 15.9085 16.1547C16.1566 16.1872 16.7236 16.3924 17.0205 16.779C17.4052 17.2792 17.3727 18.4008 17.3727 18.4008C17.3727 18.4008 17.6133 21.0134 16.8754 21.3961C16.3705 21.6596 15.6784 21.5985 14.1903 19.1415C13.4285 17.8825 12.831 15.9085 12.831 15.9085C12.831 15.9085 12.7203 15.6431 12.5217 15.5037C12.2821 15.3357 11.9471 15.2727 11.9471 15.2727L8.38759 15.2737C8.38759 15.2737 7.85209 15.245 7.65545 15.4675C7.48173 15.666 7.64114 15.9925 7.64114 15.9925C7.64114 15.9925 10.3415 22.469 13.4209 25.6849C15.5973 27.9596 17.7784 28.6364 19.7896 28.6364H20.937C21.5546 28.6364 21.8276 28.4941 21.8276 28.1753C21.8276 27.2876 21.82 26.2481 22.5884 26.018C23.5047 25.7441 24.8086 27.3239 26.0534 28.139C26.817 28.645 27.7105 28.6354 27.7105 28.6354H31.3807C31.3807 28.6354 33.1227 28.476 32.2961 27.1664C32.2293 27.0595 31.815 26.4275 29.8219 24.6588Z" fill="white"/>
</svg>
