<svg width="23" height="17" viewBox="0 0 23 17" fill="none" xmlns="http://www.w3.org/2000/svg">
<ellipse cx="12.0535" cy="9.49642" rx="6.02226" ry="6.33151" fill="white"/>
<path d="M12.4486 16.4795L7.93496 16.3927C6.47351 16.3625 5.00847 16.4229 3.57575 16.1095C1.39615 15.6414 1.24175 13.3461 1.08016 11.4208C0.857532 8.71398 0.94371 5.95811 1.36383 3.27396C1.60082 1.76767 2.53443 0.869183 3.97792 0.771028C8.85061 0.416163 13.7556 0.457689 18.6175 0.623797C19.131 0.638897 19.6481 0.721951 20.1544 0.81633C22.6536 1.2769 22.7146 3.87799 22.8762 6.06759C23.0378 8.27984 22.9695 10.5034 22.6607 12.7006C22.413 14.5202 21.939 16.0454 19.9389 16.1926C17.4326 16.3851 14.9837 16.5399 12.4701 16.4908C12.4701 16.4795 12.4557 16.4795 12.4486 16.4795ZM9.79498 11.8738C11.6837 10.7337 13.5366 9.61247 15.4145 8.47992C13.5222 7.33982 11.673 6.2186 9.79498 5.08604V11.8738Z" fill="#FF0000"/>
</svg>
